HIERARCHY
ROOT Hips
{
	OFFSET 0.00000 0.00000 0.00000
	CHANNELS 6 Xposition Yposition Zposition Zrotation Yrotation Xrotation 
	JOINT LHipJoint
	{
		OFFSET 0 0 0
		CHANNELS 3 Zrotation Yrotation Xrotation
		JOINT LeftHip
		{
			OFFSET 1.59801 -1.77853 0.57028
			CHANNELS 3 Zrotation Yrotation Xrotation
			JOINT LeftKnee
			{
				OFFSET 2.39439 -6.57854 0.00000
				CHANNELS 3 Zrotation Yrotation Xrotation
				JOINT LeftAnkle
				{
					OFFSET 2.69334 -7.39989 0.00000
					CHANNELS 3 Zrotation Yrotation Xrotation
					JOINT LeftToe
					{
						OFFSET 0.09553 -0.26245 1.73747
						CHANNELS 3 Zrotation Yrotation Xrotation
						End Site
						{
							OFFSET 0.00000 -0.00000 0.89391
						}
					}
				}
			}
		}
	}
	JOINT RHipJoint
	{
		OFFSET 0 0 0
		CHANNELS 3 Zrotation Yrotation Xrotation
		JOINT RightHip
		{
			OFFSET -1.54704 -1.77852 0.57028
			CHANNELS 3 Zrotation Yrotation Xrotation
			JOINT RightKnee
			{
				OFFSET -2.40286 -6.60180 0.00000
				CHANNELS 3 Zrotation Yrotation Xrotation
				JOINT RightAnkle
				{
					OFFSET -2.63873 -7.24984 0.00000
					CHANNELS 3 Zrotation Yrotation Xrotation
					JOINT RightToe
					{
						OFFSET -0.15631 -0.42945 1.84436
						CHANNELS 3 Zrotation Yrotation Xrotation
						End Site
						{
							OFFSET -0.00000 -0.00000 0.95734
						}
					}
				}
			}
		}
	}
	JOINT lowerback
	{
		OFFSET 0 0 0
		CHANNELS 3 Zrotation Yrotation Xrotation
		JOINT Chest
		{
			OFFSET -0.00436 1.89866 -0.04018
			CHANNELS 3 Zrotation Yrotation Xrotation
			JOINT Chest2
			{
				OFFSET 0.02031 1.88273 0.09634
				CHANNELS 3 Zrotation Yrotation Xrotation
				JOINT lowerneck
				{
					OFFSET 0 0 0
					CHANNELS 3 Zrotation Yrotation Xrotation
					JOINT Neck
					{
						OFFSET -0.13105 1.89371 0.23083
						CHANNELS 3 Zrotation Yrotation Xrotation
						JOINT Head
						{
							OFFSET 0.17062 1.83990 -0.54062
							CHANNELS 3 Zrotation Yrotation Xrotation
							End Site
							{
								OFFSET 0.04576 1.94782 -0.21839
							}
						}
					}
				}
				JOINT LeftCollar
				{
					OFFSET 0 0 0
					CHANNELS 3 Zrotation Yrotation Xrotation
					JOINT LeftShoulder
					{
						OFFSET 3.12424 1.09204 0.22226
CHANNELS 3 Zrotation Xrotation Yrotation
						JOINT LeftElbow
						{
OFFSET 0 -5.292770 0.000000
CHANNELS 3 Zrotation Xrotation Yrotation
							JOINT LeftWrist
							{
OFFSET 0 -2.852260 0.000000
CHANNELS 3 Zrotation Xrotation Yrotation
								JOINT lhand
								{
									OFFSET 0 0 0
CHANNELS 3 Zrotation Xrotation Yrotation
									JOINT LFingers
									{
OFFSET 0 -0.602100 0.000000
CHANNELS 3 Zrotation Xrotation Yrotation
										End Site
										{
OFFSET 0 -0.485430 0.000000
										}
									}
								}
								JOINT LThumb
								{
OFFSET 0 0.000000 0.000000
CHANNELS 3 Zrotation Xrotation Yrotation
									End Site
									{
OFFSET 0 -0.492840 0.492840
									}
								}
							}
						}
					}
				}
				JOINT RightCollar
				{
					OFFSET 0 0 0
					CHANNELS 3 Zrotation Yrotation Xrotation
					JOINT RightShoulder
					{
						OFFSET -2.91709 1.01504 0.30199
CHANNELS 3 Zrotation Xrotation Yrotation
						JOINT RightElbow
						{
OFFSET 0 -5.133040 0.000000
CHANNELS 3 Zrotation Xrotation Yrotation
							JOINT RightWrist
							{
OFFSET 0 -2.743050 0.000000
CHANNELS 3 Zrotation Xrotation Yrotation
								JOINT rhand
								{
									OFFSET 0 0 0
CHANNELS 3 Zrotation Xrotation Yrotation
									JOINT RFingers
									{
OFFSET 0 -0.767980 0.000000
CHANNELS 3 Zrotation Xrotation Yrotation
										End Site
										{
OFFSET 0 -0.619160 0.000000
										}
									}
								}
								JOINT RThumb
								{
OFFSET 0 0.000000 0.000000
CHANNELS 3 Zrotation Xrotation Yrotation
									End Site
									{
OFFSET 0 -0.628620 0.628620
									}
								}
							}
						}
					}
				}
			}
		}
	}
}
MOTION
Frames: 10
Frame Time: 0.008333333333333333
0.257400 17.446700 -0.208500 -0.040200 4.944900 2.688000 0.000000 0.000000 0.000000 -20.483200 -18.720200 3.892000 0.522700 4.633500 12.866200 0.368300 6.907300 -16.037300 1.040800 -6.488400 -18.208200 0.000000 0.000000 0.000000 18.942800 8.461100 8.836100 0.000000 0.000000 -0.000000 -0.094200 -10.934800 -16.889800 -0.263100 3.299700 -9.114400 -3.325300 -0.429100 -3.020900 0.764400 -0.482200 -1.157000 2.633600 -0.234100 0.539600 -18.488900 -11.222100 -9.435100 17.952700 -17.080400 22.720900 7.231900 -7.738100 12.324000 0.000000 0.000000 0.000000 -0.821900 0.064000 -32.755700 9.332300 -15.688400 1.288500 4.936100 18.139300 -22.951500 0.000000 0.000000 0.000000 -7.125000 0.000000 0.000000 -24.206600 51.354400 3.986200 0.000000 0.000000 0.000000 -3.480000 5.307200 29.742800 -13.433800 -21.919500 -2.613000 -5.962900 24.900300 -10.560300 0.000000 0.000000 0.000000 7.125000 0.000000 -0.000000 14.843900 19.531600 9.343300
0.262029 17.436569 -0.229947 0.013286 4.824117 2.195294 0.000000 0.000000 0.000000 -20.635917 -18.528301 4.074046 0.555107 4.772711 13.261429 0.386110 6.750449 -16.123937 0.926242 -6.131187 -17.165608 0.000000 0.000000 0.000000 18.935921 8.434406 9.290559 0.000000 0.000000 0.000000 -0.090993 -10.899123 -16.800084 -0.248345 3.206174 -8.853348 -3.349732 -0.337910 -2.353697 0.799929 -0.373681 -0.340050 2.688476 -0.200069 0.997521 -18.456430 -11.173374 -9.176365 18.594497 -16.922765 20.982225 7.446625 -7.642377 11.635910 0.000000 0.000000 0.000000 1.210381 -0.448482 -38.337400 11.441199 -18.960315 1.917651 2.092708 8.765624 -23.084011 0.000000 0.000000 0.000000 -7.125000 0.000000 0.000000 -26.911328 51.013989 4.254096 0.000000 0.000000 0.000000 -7.481957 5.828735 40.538572 -17.363326 -27.330861 -4.254646 -2.884301 12.827238 -9.524188 0.000000 0.000000 0.000000 7.125000 0.000000 0.000000 17.068401 20.605319 10.434960
0.269671 17.424219 -0.275823 0.070216 4.797623 1.492127 0.000000 0.000000 0.000000 -20.784395 -18.430325 4.263556 0.609170 4.995691 13.896370 0.415661 6.544642 -16.316407 0.997601 -6.356307 -17.821941 0.000000 0.000000 0.000000 19.169152 9.094954 7.614680 -0.060442 -1.585897 4.362507 -0.290938 -10.655563 -18.961776 -0.186778 2.782551 -7.674144 -3.167908 -0.392596 -1.623323 0.726965 -0.458525 1.022903 2.508159 -0.277176 1.991933 -18.246231 -10.989164 -8.990445 19.575339 -16.556581 18.657971 7.777251 -7.423868 10.746733 0.000000 0.000000 0.000000 6.893669 -1.242863 -47.563328 16.422415 -26.088676 3.830638 -4.985945 -6.721804 -26.994581 0.000000 0.000000 0.000000 -7.125000 0.000000 0.000000 -35.929712 53.162185 8.037005 0.000000 0.000000 0.000000 -14.185032 5.738853 51.427529 -24.197088 -35.369418 -7.821383 -0.455605 -3.444945 -7.330574 0.000000 0.000000 0.000000 7.125000 0.000000 0.000000 19.018372 22.713632 10.790049
0.265243 17.396522 -0.335964 0.490773 4.963787 0.690433 0.000000 0.000000 0.000000 -21.290190 -17.776183 4.164772 0.688128 5.303254 14.775612 0.453321 5.720909 -16.099955 1.006527 -6.382679 -17.899312 0.000000 0.000000 0.000000 18.905128 9.321096 6.563848 -0.179004 -2.722989 7.508630 -0.418816 -10.529639 -20.215183 -0.266328 3.319863 -9.170475 -3.447758 -0.487598 -1.303326 0.601367 -0.561678 2.757408 2.528190 -0.385469 3.612661 -18.197120 -10.625984 -7.862802 20.452590 -15.872571 15.627945 8.162295 -7.160512 9.402640 0.000000 0.000000 0.000000 16.658148 -3.409924 -55.137654 22.758307 -33.819959 7.004740 -12.055516 -20.464480 -27.757924 0.000000 0.000000 0.000000 -7.125000 0.000000 0.000000 -42.738387 52.508129 9.274487 0.000000 0.000000 0.000000 -24.245365 4.305466 60.571709 -33.240020 -43.506917 -13.589403 1.824214 -20.581359 -5.312065 0.000000 0.000000 0.000000 7.125000 0.000000 0.000000 20.917956 24.595617 11.033912
0.258862 17.376377 -0.397603 1.032249 5.247348 0.002281 0.000000 0.000000 0.000000 -21.926641 -17.153611 4.293319 0.714493 5.401877 15.058360 0.466483 4.928373 -15.653345 0.980962 -6.304191 -17.669661 0.000000 0.000000 0.000000 18.418530 9.396483 5.600759 -0.345284 -3.775806 10.446857 -0.591330 -10.228585 -21.634350 -0.264633 3.309473 -9.141554 -4.010780 -0.651224 -1.168854 0.512618 -0.737840 4.241334 2.738161 -0.541078 5.108485 -18.189931 -9.993166 -5.962393 20.833547 -14.909698 13.233171 8.470118 -6.842818 8.074102 0.000000 0.000000 0.000000 29.905442 -7.350924 -62.315826 27.320369 -38.482185 9.698204 -12.594344 -34.276720 -29.320476 0.000000 0.000000 0.000000 -7.125000 0.000000 0.000000 -44.508820 53.601420 11.129805 0.000000 0.000000 0.000000 -36.998899 1.613492 68.280338 -41.514133 -48.939597 -19.574097 2.889838 -40.904764 -3.540502 0.000000 0.000000 0.000000 7.125000 0.000000 0.000000 21.981539 26.225485 10.769487
0.251690 17.361103 -0.469787 1.118640 5.757651 -0.277197 0.000000 0.000000 0.000000 -21.913046 -17.045433 3.625883 0.801832 5.715137 15.960013 0.492650 4.333110 -15.555880 1.124079 -6.734488 -18.931213 0.000000 0.000000 0.000000 18.282188 9.050486 5.095963 -0.418157 -4.150398 11.500245 -0.699891 -9.895579 -22.335600 -0.191955 2.821114 -7.781125 -4.359568 -0.862444 -0.970078 0.637700 -1.003051 5.175486 3.044892 -0.726137 6.016167 -18.465437 -9.307347 -3.715356 20.899039 -13.995969 11.692553 8.736052 -6.577089 6.997050 0.000000 0.000000 0.000000 45.291490 -10.865865 -66.985726 31.137053 -41.846846 12.161705 -14.838395 -53.599768 -32.223427 0.000000 0.000000 0.000000 -7.125000 0.000000 0.000000 -49.118901 55.291037 15.033443 0.000000 0.000000 0.000000 -50.763837 -1.042801 73.147054 -46.995904 -51.708902 -23.795396 3.070859 -57.513832 -1.948657 0.000000 0.000000 0.000000 7.125000 0.000000 0.000000 22.419814 27.696552 10.169116
0.245343 17.359486 -0.525199 1.013122 6.142900 0.099959 0.000000 0.000000 0.000000 -21.477265 -17.047482 2.285390 0.885023 5.996797 16.775163 0.510484 3.397192 -15.166435 1.012800 -6.400685 -17.952348 0.000000 0.000000 0.000000 18.255188 9.056709 3.927264 -0.483938 -4.460580 12.376229 -0.740610 -9.818183 -22.634227 -0.233420 3.108864 -8.582141 -4.601284 -0.932241 -0.995522 0.769161 -1.079156 5.788916 3.309058 -0.806612 6.703782 -19.237481 -8.927536 -1.474202 21.542169 -13.595514 10.084918 9.222629 -6.546636 6.117087 0.000000 0.000000 0.000000 62.145358 -12.421194 -69.093955 38.492661 -47.143552 17.328216 -20.483784 -73.555094 -31.640796 0.000000 0.000000 0.000000 -7.125000 0.000000 0.000000 -53.230771 53.761817 14.662714 0.000000 0.000000 0.000000 -63.510669 -1.864686 74.098621 -51.605874 -53.621587 -27.462304 2.475129 -64.565158 -1.405052 0.000000 0.000000 0.000000 7.125000 0.000000 0.000000 22.099982 28.218631 9.703357
0.252166 17.336401 -0.561132 0.907154 6.604354 0.907000 0.000000 0.000000 0.000000 -20.856713 -16.851788 -0.396922 1.118002 6.716557 18.878490 0.580329 1.862927 -15.185390 1.102460 -6.671465 -18.745562 0.000000 0.000000 0.000000 17.935620 9.115305 1.304948 -0.696269 -5.333279 14.861693 -0.906074 -9.207756 -23.554863 -0.261577 3.290060 -9.087387 -4.312144 -0.719467 -0.803314 0.567185 -0.797404 6.062448 2.954923 -0.651978 6.847251 -19.570721 -8.889403 0.567634 22.319276 -13.750925 8.791642 9.616602 -6.750756 5.482825 0.000000 0.000000 0.000000 78.189004 -11.503550 -68.549516 55.027836 -54.823459 30.240877 -24.790427 -89.131650 -31.408133 0.000000 0.000000 0.000000 -7.125000 0.000000 0.000000 -56.388773 52.776446 14.470036 0.000000 0.000000 0.000000 -74.160124 1.459135 72.347813 -62.930039 -57.036394 -36.790588 4.792218 -71.436023 -1.642264 0.000000 0.000000 0.000000 7.125000 0.000000 0.000000 23.714728 27.921506 10.721861
0.276074 17.239107 -0.630358 0.622898 6.858762 1.601558 0.000000 0.000000 0.000000 -19.854968 -16.030979 -5.096420 1.772033 8.372183 23.851550 0.759667 -1.319702 -16.074279 0.858577 -5.908435 -16.519048 0.000000 0.000000 0.000000 17.401899 7.165850 -4.008480 -1.307184 -7.239465 20.428093 -1.437173 -5.624390 -25.292960 -0.327282 3.673662 -10.160716 -4.102977 -0.494251 0.123790 0.733819 -0.546921 6.389745 3.034273 -0.522218 6.638320 -19.933219 -8.889666 1.523243 22.824827 -13.865371 8.252393 9.889549 -6.871186 5.246110 0.000000 0.000000 0.000000 89.907726 -8.883005 -65.436911 81.052983 -59.674937 52.261125 -30.326453 -103.186566 -28.631144 0.000000 0.000000 0.000000 -7.125000 0.000000 0.000000 -57.735576 49.915012 9.990765 0.000000 0.000000 0.000000 -83.767298 5.840099 70.939149 -87.279303 -59.952457 -57.644417 7.583881 -77.029774 -4.730057 0.000000 0.000000 0.000000 7.125000 0.000000 0.000000 25.005082 24.994889 13.355764
0.318162 16.983476 -0.739185 0.799799 6.848527 1.574351 0.000000 0.000000 0.000000 -19.482496 -14.817365 -10.920794 3.125252 10.894326 31.925235 0.976273 -4.899176 -17.677156 0.913536 -6.090118 -17.046022 0.000000 0.000000 0.000000 16.110418 5.053359 -10.933113 -2.778435 -10.326403 30.041192 -2.274886 -0.862867 -28.867953 -0.342150 3.758727 -10.398939 -3.958008 -0.409761 2.299383 0.518854 -0.509172 6.820237 2.741540 -0.477948 5.838841 -19.870338 -8.779577 0.799014 23.400169 -13.827116 9.303103 10.084344 -6.773868 5.720228 0.000000 0.000000 0.000000 96.811220 -5.211922 -59.711508 110.577009 -58.332923 77.719981 -36.343176 -112.281737 -26.723479 0.000000 0.000000 0.000000 -7.125000 0.000000 0.000000 -59.708274 47.580218 5.873758 0.000000 0.000000 0.000000 -89.978682 8.818521 68.010695 -115.342349 -57.423423 -81.756712 13.822339 -78.718921 -8.321128 0.000000 0.000000 0.000000 7.125000 0.000000 0.000000 28.295956 21.460808 18.303564
